<svg width="20" height="19" viewBox="0 0 20 19" fill="none" xmlns="http://www.w3.org/2000/svg">
<path d="M5 5H15H5ZM5 8H15H5ZM5 11H9H5ZM1 15V3C1 2.46957 1.21071 1.96086 1.58579 1.58579C1.96086 1.21071 2.46957 1 3 1H17C17.5304 1 18.0391 1.21071 18.4142 1.58579C18.7893 1.96086 19 2.46957 19 3V13C19 13.5304 18.7893 14.0391 18.4142 14.4142C18.0391 14.7893 17.5304 15 17 15H5.667C5.23426 15 4.81319 15.1404 4.467 15.4L1 18V15Z" stroke="#10305B" stroke-width="2" stroke-linecap="round" stroke-linejoin="round"/>
</svg>
