<svg width="42" height="23" viewBox="0 0 42 23" fill="none" xmlns="http://www.w3.org/2000/svg">
<path d="M2.488 18.344L0.556 20.822C0.85 21.018 1.2 21.2 1.606 21.368C2.012 21.55 2.467 21.704 2.971 21.83C3.475 21.956 4 22.019 4.546 22.019C5.19 22.019 5.806 21.942 6.394 21.788C6.982 21.648 7.5 21.424 7.948 21.116C8.396 20.822 8.746 20.423 8.998 19.919C9.25 19.429 9.376 18.834 9.376 18.134V2.3H5.554V17.336C5.554 17.952 5.407 18.386 5.113 18.638C4.819 18.89 4.511 19.016 4.189 19.016C3.881 19.016 3.573 18.946 3.265 18.806C2.957 18.68 2.698 18.526 2.488 18.344ZM11.6036 12.17C11.6036 13.178 11.8416 14.06 12.3176 14.816C12.7936 15.572 13.4516 16.16 14.2916 16.58C15.1316 17 16.0766 17.21 17.1266 17.21C18.1766 17.21 19.1146 17 19.9406 16.58C20.7806 16.16 21.4386 15.572 21.9146 14.816C22.4046 14.06 22.6496 13.178 22.6496 12.17C22.6496 11.148 22.4046 10.259 21.9146 9.503C21.4386 8.747 20.7806 8.159 19.9406 7.739C19.1146 7.319 18.1766 7.109 17.1266 7.109C16.0766 7.109 15.1316 7.319 14.2916 7.739C13.4516 8.159 12.7936 8.747 12.3176 9.503C11.8416 10.259 11.6036 11.148 11.6036 12.17ZM14.8586 12.17C14.8586 11.666 14.9636 11.232 15.1736 10.868C15.3836 10.504 15.6566 10.224 15.9926 10.028C16.3286 9.832 16.7066 9.734 17.1266 9.734C17.5326 9.734 17.9036 9.832 18.2396 10.028C18.5896 10.224 18.8626 10.504 19.0586 10.868C19.2686 11.232 19.3736 11.666 19.3736 12.17C19.3736 12.674 19.2686 13.108 19.0586 13.472C18.8626 13.822 18.5896 14.095 18.2396 14.291C17.9036 14.487 17.5326 14.585 17.1266 14.585C16.7066 14.585 16.3286 14.487 15.9926 14.291C15.6566 14.095 15.3836 13.822 15.1736 13.472C14.9636 13.108 14.8586 12.674 14.8586 12.17ZM27.7074 0.619999H24.5364V17H27.7074V0.619999ZM35.6034 12.17C35.6034 11.078 35.3794 10.161 34.9314 9.419C34.4974 8.677 33.9304 8.11 33.2304 7.718C32.5444 7.326 31.8024 7.13 31.0044 7.13C30.2064 7.13 29.4924 7.333 28.8624 7.739C28.2324 8.145 27.7354 8.726 27.3714 9.482C27.0074 10.224 26.8254 11.12 26.8254 12.17C26.8254 13.206 27.0074 14.102 27.3714 14.858C27.7354 15.614 28.2324 16.195 28.8624 16.601C29.4924 17.007 30.2064 17.21 31.0044 17.21C31.8024 17.21 32.5444 17.014 33.2304 16.622C33.9304 16.23 34.4974 15.663 34.9314 14.921C35.3794 14.165 35.6034 13.248 35.6034 12.17ZM32.2644 12.17C32.2644 12.674 32.1594 13.115 31.9494 13.493C31.7394 13.857 31.4594 14.144 31.1094 14.354C30.7594 14.55 30.3744 14.648 29.9544 14.648C29.5904 14.648 29.2334 14.55 28.8834 14.354C28.5474 14.158 28.2674 13.878 28.0434 13.514C27.8194 13.136 27.7074 12.688 27.7074 12.17C27.7074 11.652 27.8194 11.211 28.0434 10.847C28.2674 10.469 28.5474 10.182 28.8834 9.986C29.2334 9.79 29.5904 9.692 29.9544 9.692C30.3744 9.692 30.7594 9.797 31.1094 10.007C31.4594 10.203 31.7394 10.49 31.9494 10.868C32.1594 11.232 32.2644 11.666 32.2644 12.17ZM37.3293 3.707C37.3293 4.211 37.5113 4.624 37.8753 4.946C38.2393 5.268 38.6733 5.429 39.1773 5.429C39.6953 5.429 40.1293 5.268 40.4793 4.946C40.8433 4.624 41.0253 4.211 41.0253 3.707C41.0253 3.203 40.8433 2.797 40.4793 2.489C40.1293 2.167 39.6953 2.006 39.1773 2.006C38.6733 2.006 38.2393 2.167 37.8753 2.489C37.5113 2.797 37.3293 3.203 37.3293 3.707ZM37.6443 7.34V17H40.7103V7.34H37.6443Z" fill="#415B8A"/>
</svg>
