<svg width="19" height="5" viewBox="0 0 19 5" fill="none" xmlns="http://www.w3.org/2000/svg">
<path d="M16.8443 1.95503e-05H16.3245C16.2825 0.0119052 16.2442 0.0317149 16.2022 0.039639C15.1091 0.213964 14.2452 1.15691 14.1726 2.26227C14.0885 3.4984 14.7689 4.54436 15.8773 4.88508C16.0225 4.92866 16.1754 4.96036 16.3245 4.99998H16.8443C16.8787 4.98809 16.9093 4.96828 16.9475 4.96432C17.9565 4.79396 18.7248 4.04119 18.9427 3.01108C18.958 2.93184 18.9809 2.8526 19 2.77336V2.23454C18.9885 2.19888 18.9694 2.16322 18.9656 2.12757C18.8051 1.09746 18.098 0.313014 17.1156 0.0752769C17.0201 0.0515051 16.9322 0.0237718 16.8443 0L16.8443 1.95503e-05ZM2.15187 5L2.67173 4.99998C2.71377 4.98809 2.75199 4.96828 2.79404 4.96432C3.89482 4.78603 4.75482 3.83913 4.82362 2.72186C4.90006 1.48969 4.21207 0.4477 3.09981 0.110934C2.95837 0.0673528 2.81315 0.0356574 2.67171 0H2.15189C2.11749 0.0118856 2.08691 0.0316954 2.05251 0.0396194C1.05875 0.229793 0.408974 0.828048 0.0993768 1.82646C0.0573328 1.9572 0.0343997 2.09587 0 2.23058V2.7694C0.0114666 2.80506 0.0305775 2.84072 0.0343997 2.87637C0.198754 3.91044 0.902035 4.69095 1.88434 4.92866C1.97607 4.95246 2.06398 4.97623 2.15187 5ZM9.23822 4.99998H9.75804C9.80008 4.98809 9.8383 4.96828 9.88035 4.96036C10.9773 4.78207 11.8602 3.79951 11.9061 2.69016C11.9596 1.44215 11.2334 0.384308 10.1135 0.087162C9.99501 0.0554667 9.87652 0.0277338 9.75804 0H9.23822C9.19617 0.0118856 9.15795 0.0316954 9.11591 0.0396194C8.01894 0.213945 7.136 1.20047 7.08633 2.30982C7.029 3.55783 7.75903 4.61567 8.87893 4.91282C9.00124 4.94451 9.11973 4.97225 9.23822 4.99998Z" fill="#415B8A"/>
</svg>
